<svg width="32" height="32" viewBox="0 0 32 32" fill="none" xmlns="http://www.w3.org/2000/svg">
  <path d="M16.361 4.9855C18.343 2.393 19.988 -0.17061 20.621 -2.24086C20.638 -2.29719 20.704 -2.32112 20.753 -2.2886C22.954 -0.83106 26.963 0.12833 30.509 0.15085C30.57 0.15124 30.612 0.2114 30.59 0.26829C29.411 3.25938 27.971 8.61894 27.915 14.7392C27.915 14.8301 27.787 14.8627 27.742 14.7837C25.724 11.2522 19.26 6.28984 16.394 5.11861C16.341 5.09681 16.326 5.03127 16.361 4.9855Z" fill="url(#paint0_linear_2060_4996)"/>
  <path d="M23.048 3.39974C19.95 4.38062 17.119 4.92586 16.443 5.04978C16.4 5.05771 16.391 5.11716 16.432 5.13398C19.32 6.33472 25.752 11.2826 27.751 14.7998C27.755 14.8075 27.765 14.8103 27.773 14.8068C27.781 14.803 27.785 14.793 27.782 14.7844L23.048 3.39974Z" fill="url(#paint1_linear_2060_4996)"/>
  <path d="M20.762 -2.295C23.414 -0.84839 26.479 -0.19868 30.545 0.14367C30.57 0.14585 30.579 0.18008 30.556 0.19197C30.036 0.45923 27.057 1.97512 24.845 2.78701C24.252 3.00453 23.656 3.20632 23.069 3.39249C23.056 3.39656 23.042 3.39015 23.037 3.37774L20.701 -2.24021C20.685 -2.27804 20.726 -2.31462 20.762 -2.295Z" fill="url(#paint2_linear_2060_4996)"/>
  <path d="M20.715 -2.20959L27.831 14.7659" stroke="#513C9F" stroke-width="0.17284" stroke-linecap="round"/>
  <path d="M16.445 5.04757C16.445 5.04757 20.375 4.34217 24.069 3.06804C27.762 1.7939 30.512 0.23373 30.512 0.23373" stroke="#513C9F" stroke-width="0.17284" stroke-linecap="round"/>
  <path d="M16.025 17.9646L14.858 18.1287C15.463 19.7287 16.704 20.4276 18.185 20.4276C21.815 20.4276 20.707 16.3227 22.81 16.3227C24.336 16.3227 23.716 19.6498 26.999 19.6498C29.003 19.6498 29.203 17.631 28.861 16.7625C28.859 16.7572 28.857 16.7524 28.854 16.7476L28.317 15.9253C28.282 15.8706 28.197 15.8912 28.191 15.9562L28.091 16.9529C28.084 17.0222 28.086 17.0913 28.094 17.1605C28.176 17.8491 28.229 19.5202 26.999 19.5202C25.702 19.5202 25.39 16.2362 22.81 16.2362C19.784 16.2362 20.173 20.298 18.315 20.298C17.089 20.298 16.154 18.9153 16.025 17.9646Z" fill="url(#paint3_linear_2060_4996)"/>
  <defs>
    <linearGradient id="paint0_linear_2060_4996" x1="25.537" y1="-0.9722" x2="22.08" y2="8.534" gradientUnits="userSpaceOnUse">
      <stop stop-color="#6430AB"/>
      <stop offset="1" stop-color="#AA89D8"/>
    </linearGradient>
    <linearGradient id="paint1_linear_2060_4996" x1="22.858" y1="4.3858" x2="18.408" y2="12.9846" gradientUnits="userSpaceOnUse">
      <stop stop-color="#005DBB"/>
      <stop offset="1" stop-color="#3D92E8"/>
    </linearGradient>
    <linearGradient id="paint2_linear_2060_4996" x1="24.845" y1="-0.97226" x2="23.505" y2="3.21911" gradientUnits="userSpaceOnUse">
      <stop stop-color="#1B70C4"/>
      <stop offset="1" stop-color="#54A4F2"/>
    </linearGradient>
    <linearGradient id="paint3_linear_2060_4996" x1="14.858" y1="18.2455" x2="28.996" y2="18.2455" gradientUnits="userSpaceOnUse">
      <stop stop-color="#4497EA"/>
      <stop offset="0.254755" stop-color="#1463B2"/>
      <stop offset="0.498725" stop-color="#0A437D"/>
      <stop offset="0.666667" stop-color="#2476C8"/>
      <stop offset="0.972542" stop-color="#0C549A"/>
    </linearGradient>
  </defs>
</svg> 